<svg xmlns="http://www.w3.org/2000/svg" width="76" height="76" viewBox="0 0 76 76">
  <g id="Group_2224" data-name="Group 2224" transform="translate(-323.844 -334)">
    <circle id="Ellipse_406" data-name="Ellipse 406" cx="32" cy="32" r="32" transform="translate(329.844 340)" fill="#e2fae9"/>
    <g id="Ellipse_411" data-name="Ellipse 411" transform="translate(323.844 334)" fill="none" stroke="#e2fae9" stroke-width="1">
      <circle cx="38" cy="38" r="38" stroke="none"/>
      <circle cx="38" cy="38" r="37.5" fill="none"/>
    </g>
    <g id="curvature" transform="translate(346.01 319.134)">
      <path id="Path_2566" data-name="Path 2566" d="M0,0H5.449V11.711H0Z" transform="translate(19.539 43.321) rotate(-45)" fill="#389856"/>
      <path id="Path_2567" data-name="Path 2567" d="M124.308,119.939l-6.957,4.139-4.08,14.394,7.99-7.972-.008-1.871,3.189-.036.036,3.2-1.894.008-8,7.984,14.545-4.193,3.858-6.978Z" transform="translate(-106.263 -75.492)" fill="#389856"/>
      <path id="Path_2568" data-name="Path 2568" d="M7.007,223.868l-.656.656a2.629,2.629,0,0,1-3.8-3.633l1.255-1.373a4.478,4.478,0,0,0-.14-6.2l-2.354-2.354L0,212.279l2.354,2.354a2.625,2.625,0,0,1,.082,3.633l-1.255,1.373a4.486,4.486,0,0,0,6.484,6.2l.655-.655h0Z" transform="translate(0 -160.887)" fill="#389856"/>
    </g>
  </g>
</svg>
